<svg width="512" height="512" viewBox="0 0 512 512" fill="none" xmlns="http://www.w3.org/2000/svg">
<circle cx="256" cy="256" r="256" fill="#F178B6"/>
<circle cx="256" cy="256" r="220" fill="#5D5FEF"/>
<path d="M323.641 251.328C320.406 251.328 317.781 253.953 317.781 257.188C317.781 260.422 320.406 263.047 323.641 263.047C326.875 263.047 329.5 260.422 329.5 257.188C329.5 253.953 326.875 251.328 323.641 251.328Z" fill="#F178B6"/>
<path d="M435.133 399.992L356.922 321.781C369.664 302.589 376.375 280.364 376.375 257.188C376.375 192.57 323.805 140 259.188 140C194.57 140 142 192.57 142 257.188C142 321.805 194.57 374.375 259.188 374.375C282.365 374.375 304.589 367.663 323.781 354.923L345.399 376.541C345.402 376.544 345.405 376.547 345.408 376.551L401.991 433.133C406.42 437.561 412.304 440 418.562 440C424.821 440 430.705 437.561 435.132 433.135C439.561 428.71 442 422.824 442 416.562C442 410.301 439.561 404.415 435.133 399.992ZM321.025 342.574C321.025 342.575 321.024 342.575 321.024 342.576C302.938 355.712 281.556 362.656 259.188 362.656C201.032 362.656 153.719 315.343 153.719 257.188C153.719 199.032 201.032 151.719 259.188 151.719C317.343 151.719 364.656 199.032 364.656 257.188C364.656 279.556 357.712 300.938 344.575 319.024C338.003 328.079 330.079 336.003 321.025 342.574ZM333.318 347.887C339.382 342.925 344.926 337.382 349.887 331.318L366.51 347.942C361.455 353.908 355.908 359.455 349.942 364.51L333.318 347.887ZM426.847 424.847C424.632 427.062 421.69 428.281 418.562 428.281C415.435 428.281 412.493 427.062 410.278 424.847L358.25 372.819C364.183 367.726 369.726 362.184 374.818 356.25L426.848 408.28C429.062 410.492 430.281 413.432 430.281 416.562C430.281 419.693 429.062 422.633 426.847 424.847Z" fill="#F178B6"/>
<path d="M259.188 163.438C207.493 163.438 165.438 205.493 165.438 257.188C165.438 308.882 207.493 350.938 259.188 350.938C310.882 350.938 352.938 308.882 352.938 257.188C352.938 205.493 310.882 163.438 259.188 163.438ZM259.188 339.219C213.955 339.219 177.156 302.42 177.156 257.188C177.156 211.955 213.955 175.156 259.188 175.156C304.42 175.156 341.219 211.955 341.219 257.188C341.219 302.42 304.42 339.219 259.188 339.219Z" fill="#F178B6"/>
<path d="M324.851 232.035C319.805 218.903 311.02 207.675 299.444 199.566C287.593 191.264 273.672 186.875 259.188 186.875C255.952 186.875 253.328 189.499 253.328 192.734C253.328 195.97 255.952 198.594 259.188 198.594C283.269 198.594 305.26 213.721 313.912 236.238C314.807 238.568 317.027 239.998 319.383 239.998C320.081 239.998 320.792 239.872 321.483 239.606C324.503 238.446 326.011 235.056 324.851 232.035Z" fill="#F178B6"/>
</svg>
