<svg width="1593" height="277" viewBox="0 0 1593 277" fill="none" xmlns="http://www.w3.org/2000/svg">
<path d="M58 226.5V0.5L0 56.2255V277L58 226.5Z" fill="#019E4E"/>
<path d="M155 226V0L97 55.7255V276.5L155 226Z" fill="#019E4E"/>
<path d="M252 226V0L194 55.7255V276.5L252 226Z" fill="#019E4E"/>
<path d="M413.074 254L354.274 78.5H353.074C353.274 82.5 353.574 88.2 353.974 95.6C354.374 102.8 354.674 110.7 354.874 119.3C355.274 127.7 355.474 135.6 355.474 143V254H320.974V39.8H374.374L430.774 208.1H431.974L490.774 39.8H544.174V254H507.574V141.2C507.574 134.4 507.674 127 507.874 119C508.274 110.8 508.574 103.1 508.774 95.9C509.174 88.7 509.474 83 509.674 78.8H508.474L447.274 254H413.074ZM660.788 88.4C681.788 88.4 697.688 93 708.488 102.2C719.488 111.4 724.988 125.6 724.988 144.8V254H698.288L690.788 231.5H689.588C682.588 240.3 675.188 246.8 667.388 251C659.588 255 648.988 257 635.588 257C620.988 257 608.888 252.9 599.288 244.7C589.688 236.5 584.888 223.8 584.888 206.6C584.888 189.8 590.988 177.2 603.188 168.8C615.588 160.4 634.288 155.7 659.288 154.7L687.488 153.8V145.7C687.488 135.5 684.988 128.2 679.988 123.8C674.988 119.2 667.988 116.9 658.988 116.9C650.788 116.9 642.888 118.1 635.288 120.5C627.888 122.9 620.488 125.7 613.088 128.9L601.088 102.5C609.088 98.3 618.188 94.9 628.388 92.3C638.788 89.7 649.588 88.4 660.788 88.4ZM667.688 177.8C651.088 178.4 639.588 181.3 633.188 186.5C626.788 191.5 623.588 198.3 623.588 206.9C623.588 214.7 625.788 220.3 630.188 223.7C634.788 226.9 640.788 228.5 648.188 228.5C659.188 228.5 668.488 225.4 676.088 219.2C683.688 212.8 687.488 203.4 687.488 191V177.2L667.688 177.8ZM859.355 88.4C877.555 88.4 891.755 93.1 901.955 102.5C912.355 111.9 917.555 127.1 917.555 148.1V254H879.755V155.6C879.755 131.2 869.755 119 849.755 119C834.555 119 824.155 123.8 818.555 133.4C812.955 143 810.155 156.7 810.155 174.5V254H772.355V91.4H801.455L806.855 112.7H808.955C814.155 104.3 821.255 98.2 830.255 94.4C839.455 90.4 849.155 88.4 859.355 88.4ZM1109.14 91.4V254H1079.44L1074.34 233H1072.54C1067.14 241.4 1059.84 247.5 1050.64 251.3C1041.64 255.1 1032.04 257 1021.84 257C1003.64 257 989.335 252.3 978.935 242.9C968.735 233.5 963.635 218.4 963.635 197.6V91.4H1001.44V190.1C1001.44 214.3 1011.44 226.4 1031.44 226.4C1046.64 226.4 1057.04 221.7 1062.64 212.3C1068.44 202.7 1071.34 188.9 1071.34 170.9V91.4H1109.14ZM1195.12 254H1157.32V26H1195.12V254ZM1262.35 28.7C1268.15 28.7 1273.05 30.2 1277.05 33.2C1281.25 36 1283.35 41.1 1283.35 48.5C1283.35 55.9 1281.25 61.1 1277.05 64.1C1273.05 67.1 1268.15 68.6 1262.35 68.6C1256.55 68.6 1251.55 67.1 1247.35 64.1C1243.35 61.1 1241.35 55.9 1241.35 48.5C1241.35 41.1 1243.35 36 1247.35 33.2C1251.55 30.2 1256.55 28.7 1262.35 28.7ZM1281.25 91.4V254H1243.45V91.4H1281.25ZM1413.88 119.9H1374.58V254H1336.78V119.9H1310.68V101.9L1336.78 91.1V80C1336.78 59.2 1341.68 44.8 1351.48 36.8C1361.48 28.6 1375.08 24.5 1392.28 24.5C1400.08 24.5 1407.18 25.2 1413.58 26.6C1420.18 27.8 1425.58 29.2 1429.78 30.8L1420.18 59C1416.78 58 1412.98 57.1 1408.78 56.3C1404.78 55.3 1400.38 54.8 1395.58 54.8C1388.38 54.8 1383.08 57.1 1379.68 61.7C1376.28 66.1 1374.58 72.5 1374.58 80.9V91.4H1413.88V119.9ZM1506.31 88.4C1528.11 88.4 1545.31 94.9 1557.91 107.9C1570.71 120.9 1577.11 139 1577.11 162.2V181.4H1469.71C1470.11 196.2 1474.21 207.7 1482.01 215.9C1489.81 223.9 1500.61 227.9 1514.41 227.9C1524.81 227.9 1534.21 226.9 1542.61 224.9C1551.01 222.7 1559.61 219.6 1568.41 215.6V245.9C1560.41 249.7 1552.11 252.5 1543.51 254.3C1534.91 256.1 1524.61 257 1512.61 257C1496.81 257 1482.71 254 1470.31 248C1458.11 241.8 1448.51 232.5 1441.51 220.1C1434.71 207.7 1431.31 192.3 1431.31 173.9C1431.31 146.1 1438.21 124.9 1452.01 110.3C1465.81 95.7 1483.91 88.4 1506.31 88.4ZM1506.31 116.3C1496.11 116.3 1487.81 119.6 1481.41 126.2C1475.21 132.6 1471.61 142.2 1470.61 155H1540.51C1540.31 143.8 1537.41 134.6 1531.81 127.4C1526.41 120 1517.91 116.3 1506.31 116.3Z" fill="white"/>
</svg>
