<svg width="1042" height="226" viewBox="0 0 1042 226" fill="none" xmlns="http://www.w3.org/2000/svg">
<path d="M103.75 143.121L117.617 75.8359H144.863L117.91 181.5H94.2773L74.2578 114.996L54.2383 181.5H30.7031L3.75 75.8359H30.9961L44.7656 143.023L64.1016 75.8359H84.5117L103.75 143.121ZM207.559 183.453C192.064 183.453 179.434 178.701 169.668 169.195C159.967 159.69 155.117 147.027 155.117 131.207V128.473C155.117 117.861 157.168 108.388 161.27 100.055C165.371 91.6562 171.165 85.2109 178.652 80.7188C186.204 76.1615 194.798 73.8828 204.434 73.8828C218.887 73.8828 230.247 78.4401 238.516 87.5547C246.849 96.6693 251.016 109.592 251.016 126.324V137.848H183.73C184.642 144.749 187.376 150.283 191.934 154.449C196.556 158.616 202.383 160.699 209.414 160.699C220.286 160.699 228.783 156.76 234.902 148.883L248.77 164.41C244.538 170.4 238.809 175.087 231.582 178.473C224.355 181.793 216.348 183.453 207.559 183.453ZM204.336 96.7344C198.737 96.7344 194.18 98.6224 190.664 102.398C187.214 106.174 185 111.578 184.023 118.609H223.281V116.363C223.151 110.113 221.458 105.296 218.203 101.91C214.948 98.4596 210.326 96.7344 204.336 96.7344ZM362.344 129.645C362.344 146.572 358.73 159.788 351.504 169.293C344.277 178.733 334.186 183.453 321.23 183.453C309.772 183.453 300.625 179.059 293.789 170.27L292.52 181.5H267.129V31.5H295.352V85.3086C301.862 77.6914 310.423 73.8828 321.035 73.8828C333.926 73.8828 344.017 78.6354 351.309 88.1406C358.665 97.5807 362.344 110.895 362.344 128.082V129.645ZM334.121 127.594C334.121 116.917 332.428 109.137 329.043 104.254C325.658 99.306 320.612 96.832 313.906 96.832C304.922 96.832 298.737 100.51 295.352 107.867V149.566C298.802 156.988 305.052 160.699 314.102 160.699C323.216 160.699 329.206 156.207 332.07 147.223C333.438 142.926 334.121 136.383 334.121 127.594Z" fill="#29B8BC"/>
<path d="M422.309 147.027L441.938 75.8359H471.43L435.785 181.5H408.832L373.188 75.8359H402.68L422.309 147.027ZM531.195 183.453C515.701 183.453 503.07 178.701 493.305 169.195C483.604 159.69 478.754 147.027 478.754 131.207V128.473C478.754 117.861 480.805 108.388 484.906 100.055C489.008 91.6562 494.802 85.2109 502.289 80.7188C509.841 76.1615 518.435 73.8828 528.07 73.8828C542.523 73.8828 553.884 78.4401 562.152 87.5547C570.486 96.6693 574.652 109.592 574.652 126.324V137.848H507.367C508.279 144.749 511.013 150.283 515.57 154.449C520.193 158.616 526.02 160.699 533.051 160.699C543.923 160.699 552.419 156.76 558.539 148.883L572.406 164.41C568.174 170.4 562.445 175.087 555.219 178.473C547.992 181.793 539.984 183.453 531.195 183.453ZM527.973 96.7344C522.374 96.7344 517.816 98.6224 514.301 102.398C510.85 106.174 508.637 111.578 507.66 118.609H546.918V116.363C546.788 110.113 545.095 105.296 541.84 101.91C538.585 98.4596 533.962 96.7344 527.973 96.7344ZM620.551 181.5H592.23V31.5H620.551V181.5ZM639.496 127.691C639.496 117.21 641.514 107.867 645.551 99.6641C649.587 91.4609 655.382 85.1133 662.934 80.6211C670.551 76.1289 679.372 73.8828 689.398 73.8828C703.656 73.8828 715.277 78.2448 724.262 86.9688C733.311 95.6927 738.357 107.542 739.398 122.516L739.594 129.742C739.594 145.953 735.069 158.974 726.02 168.805C716.97 178.57 704.828 183.453 689.594 183.453C674.359 183.453 662.185 178.57 653.07 168.805C644.021 159.039 639.496 145.758 639.496 128.961V127.691ZM667.719 129.742C667.719 139.768 669.607 147.451 673.383 152.789C677.159 158.062 682.562 160.699 689.594 160.699C696.43 160.699 701.768 158.095 705.609 152.887C709.451 147.613 711.371 139.215 711.371 127.691C711.371 117.861 709.451 110.243 705.609 104.84C701.768 99.4362 696.365 96.7344 689.398 96.7344C682.497 96.7344 677.159 99.4362 673.383 104.84C669.607 110.178 667.719 118.479 667.719 129.742ZM852.094 129.645C852.094 145.921 848.383 158.974 840.961 168.805C833.604 178.57 823.643 183.453 811.078 183.453C800.401 183.453 791.775 179.742 785.199 172.32V222.125H756.977V75.8359H783.148L784.125 86.1875C790.961 77.9844 799.88 73.8828 810.883 73.8828C823.904 73.8828 834.027 78.7005 841.254 88.3359C848.48 97.9714 852.094 111.253 852.094 128.18V129.645ZM823.871 127.594C823.871 117.763 822.113 110.178 818.598 104.84C815.147 99.5013 810.102 96.832 803.461 96.832C794.607 96.832 788.52 100.217 785.199 106.988V150.25C788.65 157.216 794.802 160.699 803.656 160.699C817.133 160.699 823.871 149.664 823.871 127.594ZM918.305 183.453C902.81 183.453 890.18 178.701 880.414 169.195C870.714 159.69 865.863 147.027 865.863 131.207V128.473C865.863 117.861 867.914 108.388 872.016 100.055C876.117 91.6562 881.911 85.2109 889.398 80.7188C896.951 76.1615 905.544 73.8828 915.18 73.8828C929.633 73.8828 940.993 78.4401 949.262 87.5547C957.595 96.6693 961.762 109.592 961.762 126.324V137.848H894.477C895.388 144.749 898.122 150.283 902.68 154.449C907.302 158.616 913.129 160.699 920.16 160.699C931.033 160.699 939.529 156.76 945.648 148.883L959.516 164.41C955.284 170.4 949.555 175.087 942.328 178.473C935.102 181.793 927.094 183.453 918.305 183.453ZM915.082 96.7344C909.483 96.7344 904.926 98.6224 901.41 102.398C897.96 106.174 895.746 111.578 894.77 118.609H934.027V116.363C933.897 110.113 932.204 105.296 928.949 101.91C925.694 98.4596 921.072 96.7344 915.082 96.7344ZM1037.25 102.301C1033.41 101.78 1030.02 101.52 1027.09 101.52C1016.42 101.52 1009.42 105.133 1006.1 112.359V181.5H977.875V75.8359H1004.54L1005.32 88.4336C1010.98 78.7331 1018.83 73.8828 1028.85 73.8828C1031.98 73.8828 1034.91 74.306 1037.64 75.1523L1037.25 102.301Z" fill="white"/>
</svg>
